<svg xmlns="http://www.w3.org/2000/svg" viewBox="0 0 512 512">
  <defs>
    <linearGradient id="bg" x1="0" y1="0" x2="1" y2="1">
      <stop offset="0" stop-color="#3B82F6"/>
      <stop offset="0.55" stop-color="#4F46E5"/>
      <stop offset="1" stop-color="#312E81"/>
    </linearGradient>
  </defs>
  <rect x="0" y="0" width="512" height="512" rx="116" fill="url(#bg)"/>
  <!-- capelo -->
  <path d="M256 92 L452 178 L256 264 L60 178 Z" fill="#FFFFFF"/>
  <path d="M146 222 L146 290 C146 290 190 326 256 326 C322 326 366 290 366 290 L366 222 L256 270 Z" fill="#E0E7FF"/>
  <!-- borla -->
  <path d="M256 178 L104 212 L104 286" fill="none" stroke="#FBBF24" stroke-width="12" stroke-linecap="round" stroke-linejoin="round"/>
  <circle cx="104" cy="298" r="17" fill="#FBBF24"/>
  <!-- seta de sucesso -->
  <path d="M150 432 L232 378 L292 410 L356 334" fill="none" stroke="#34D399" stroke-width="30" stroke-linecap="round" stroke-linejoin="round"/>
  <path d="M412 280 L394 368 L324 322 Z" fill="#34D399" stroke="#34D399" stroke-width="12" stroke-linejoin="round"/>
</svg>
